<svg width="708" height="193" xmlns="http://www.w3.org/2000/svg">
  <g fill="#FFF" fill-rule="evenodd">
    <path d="M277.062313 79.0258103c-8.14144-4.5974035-15.820594-6.6411949-23.495773-6.6411949-6.348578 0-10.404614 2.6433566-10.404614 6.6965035 0 12.1594405 45.85084 1.9384615 45.85084 34.8923081 0 14.979021-13.226204 27.138461-34.38813 27.138461-9.504075 0-21.142347-2.132677-29.163855-6.39803-.196223-.10434-.419057-.2457-.6685-.42408l-.00001.000013c-1.158425-.828403-1.574789-2.357083-.996464-3.658521l5.396823-12.144779-.000009-.000004c.668917-1.505303 2.426441-2.1897 3.937192-1.533181.325401.141407.612838.263195.862311.365362 6.966374 2.852942 14.188636 4.408605 20.632512 4.408605 10.051915 0 13.226204-2.643357 13.226204-7.753846 0-13.745455-45.85084-3.7007-45.85084-34.8923081C222 64.9832168 234.344457 53 253.56654 53c9.722327 0 22.850903 3.3875422 31.48594 8.3534682.234187.1346785.498889.2939814.794106.4779086l-.000001 9e-7c1.269935.7911996 1.762729 2.3971901 1.155129 3.7645062l-5.424191 12.2063693.000015.0000066c-.672827 1.5141005-2.445681 2.1960877-3.959782 1.523261a3.00013913 3.00013913 0 0 1-.280375-.1426388c-.097183-.0560405-.188873-.1083978-.275068-.1570717zM363.257947 55.6433566h14.456528c1.656855 0 3 1.3431458 3 3V176c0 1.656854-1.343145 3-3 3h-14.456528c-1.656854 0-3-1.343146-3-3v-41.055944c-5.466831 3.524475-13.226204 6.167832-21.161926 6.167832-24.688914 0-43.381948-19.560839-43.381948-44.0559439S314.407107 53 339.096021 53c7.935722 0 15.695095 2.6433566 21.161926 6.1678322v-.5244756c0-1.6568542 1.343146-3 3-3zm-3 56.2153844V82.2531469c-5.81953-5.9916084-12.873505-9.516084-20.456528-9.516084-13.226204 0-23.10177 10.3972028-23.10177 24.3188812 0 13.9216779 9.875566 24.3188809 23.10177 24.3188809 7.583023 0 14.636998-2.643356 20.456528-9.516084zM449.006217 55.5621584C444.418614 53.6625456 439.831011 53 435.243408 53c-7.935722 0-15.871445 2.6433566-22.043673 6.1678322v-1.0699301c0-1.355608-1.09709-2.4545455-2.45042-2.4545455h-15.555688c-1.35333 0-2.45042 1.0989375-2.45042 2.4545455v80.5594409c0 1.355608 1.09709 2.454545 2.45042 2.454545h15.555688c1.35333 0 2.45042-1.098937 2.45042-2.454545V81.5482517c4.761433-5.462937 12.873505-8.8111888 20.985577-8.8111888 1.879157 0 4.270929.1600784 6.806608.6849282.009595.0019861.019283.004003.029062.0060506l.000001-.0000028c1.384482.2898862 2.783357-.4266944 3.35702-1.7196507l5.830014-13.1400319.000007.0000035c.506467-1.1415051-.008333-2.4774503-1.149838-2.9839171a2.26223529 2.26223529 0 0 0-.051969-.0222843zM523.739306 132.147034c-7.911335 4.740474-19.149239 8.964854-30.532916 8.964854-26.981456 0-46.908936-19.913287-46.908936-44.760839C446.297454 72.3846154 463.050645 53 488.974005 53c23.454468 0 38.091467 20.0895105 38.091467 40.8839161 0 1.7501631-.17446 3.8619057-.398604 5.6285043-.003168.024966-.006402.0501454-.009701.075538l-.000008-.0000011c-.194324 1.4955517-1.468714 2.6143697-2.976838 2.6134377l-56.57364-.034961c2.468892 12.864335 12.520807 20.441958 26.099709 20.441958 7.588913 0 15.616655-2.10488 23.030658-6.31464 1.231674-.699359 2.797086-.267833 3.496445.963841.04148.073052.079345.148098.113459.224866l5.243314 11.799403.000008-.000003c.405364.912213.076034 1.983652-.771716 2.510695-.219079.1362-.412163.25436-.579252.35448zm-55.927227-45.4882927h38.620515c-.881747-8.2825175-8.464771-15.1552448-17.458589-15.1552448-11.639059 0-18.516685 6.8727273-21.161926 15.1552448zM613.095634 132.147034c-7.911336 4.740474-19.14924 8.964854-30.532917 8.964854-26.981455 0-46.908935-19.913287-46.908935-44.760839C535.653782 72.3846154 552.406973 53 578.330332 53c23.454468 0 38.091467 20.0895105 38.091467 40.8839161 0 1.7501631-.174459 3.8619057-.398604 5.6285043a25.24433981 25.24433981 0 0 1-.009701.075538l-.000008-.0000011c-.194324 1.4955517-1.468714 2.6143697-2.976837 2.6134377l-56.57364-.034961c2.468891 12.864335 12.520806 20.441958 26.099708 20.441958 7.588913 0 15.616656-2.10488 23.030659-6.31464 1.231674-.699359 2.797085-.267833 3.496445.963841.041479.073052.079345.148098.113459.224866l5.243313 11.799403.000008-.000003c.405364.912213.076034 1.983652-.771715 2.510695-.21908.1362-.412164.25436-.579252.35448zm-55.927228-45.4882927h38.620515c-.881747-8.2825175-8.46477-15.1552448-17.458589-15.1552448-11.639059 0-18.516685 6.8727273-21.161926 15.1552448zM625.821187 58.6433566v79.4685314c0 1.656854 1.343146 3 3 3h14.456529c1.656854 0 3-1.343146 3-3V81.5482517c4.761433-5.462937 12.873505-8.8111888 20.985576-8.8111888 13.226204 0 20.28018 7.2251749 20.28018 21.323077v44.0517481c0 1.656854 1.343145 3 3 3H705c1.656854 0 3-1.343146 3-3V91.7692308C708 67.979021 694.773796 53 668.321389 53c-7.935722 0-15.871445 2.6433566-22.043673 6.1678322v-.5244756c0-1.6568542-1.343146-3-3-3h-14.456529c-1.656854 0-3 1.3431458-3 3zM42.3983503 79.7256279C49.0873559 62.7309003 65.6399299 50.7033898 85 50.7033898c19.356318 0 35.906228 12.022849 42.597759 29.0123577l-2.551497-4.4186953-40.0453545 23.1511567-40.0453543-23.1511567-2.5572029 4.4285757zm-2.3035946 7.8730442L71.924892 106.000419v34.400237C53.01807 134.771204 39.2307692 117.246663 39.2307692 96.5c0-3.0456974.2971367-6.0219534.8639865-8.9013279zm89.8106743.0009421c.566729 2.8790816.863801 5.8550205.863801 8.9003858 0 20.745999-13.786419 38.270082-32.6923079 43.900116v-34.399697L129.90543 87.5996142z"/>
    <path d="M78.4615385 175.749389V102.2092L13.1398162 64.4731256v64.7079864l23.2123508-13.409674c1.6242798 4.101714 3.7516969 7.949115 6.3060694 11.465974l-24.0858368 13.914283 59.8891389 34.597694zm13.076923 0L151.4276 141.151695l-24.085836-13.914283c2.554372-3.516859 4.681789-7.36426 6.306069-11.465974l23.212351 13.409674V64.4731256L91.5384615 102.2092v73.540189zM18.0061522 52.1754237L85 90.8774777l66.993848-38.702054-60.4553865-34.9248132V44.565949c-2.1419623-.2672587-4.3241438-.4049321-6.5384615-.4049321-2.2143177 0-4.3964992.1376734-6.5384615.4049321V17.2506105L18.0061522 52.1754237zM90.8846156 1.76392358L164.052491 44.0326866c3.641413 2.1036283 5.884616 5.9912938 5.884616 10.1985504v84.537526c0 4.207257-2.243203 8.094922-5.884616 10.19855l-73.1678754 42.268763c-3.6414128 2.103629-8.1278184 2.103629-11.7692312 0L5.94750871 148.967313c-3.64141282-2.103628-5.88461562-5.991293-5.88461562-10.19855V54.231237c0-4.2072566 2.2432028-8.0949221 5.88461562-10.1985504L79.1153844 1.76392358c3.6414128-2.10362831 8.1278184-2.10362831 11.7692312 0z"/>
  </g>
</svg>