<svg width="93" height="79" viewBox="0 0 93 79" fill="none" xmlns="http://www.w3.org/2000/svg">
<g fill="#4842B7" fill-rule="evenodd">
              <path d="M45.666 0.0230601C45.3169 0.0677709 44.9784 0.17355 44.666 0.33556L1.66601 22.3356C1.17372 22.587 0.760465 22.9697 0.471865 23.4412C0.183265 23.9126 0.0305384 24.4547 0.0305384 25.0075C0.0305384 25.5603 0.183265 26.1024 0.471865 26.5738C0.760465 27.0453 1.17372 27.4279 1.66601 27.6794L44.666 49.6793C45.0912 49.8985 45.5626 50.0129 46.041 50.0129C46.5194 50.0129 46.9908 49.8985 47.416 49.6793L90.416 27.6794C90.9083 27.4279 91.3216 27.0453 91.6102 26.5738C91.8988 26.1024 92.0515 25.5603 92.0515 25.0075C92.0515 24.4547 91.8988 23.9126 91.6102 23.4412C91.3216 22.9697 90.9083 22.587 90.416 22.3356L47.416 0.33556C46.8776 0.0570043 46.2675 -0.0519457 45.666 0.0230601V0.0230601ZM46.041 6.39806L82.4472 25.0231L46.041 43.6168L9.63481 25.0231L46.041 6.39806V6.39806ZM2.97851 35.9919C2.30382 35.9968 1.65048 36.229 1.124 36.6509C0.597518 37.0729 0.228633 37.66 0.076917 38.3174C-0.0747992 38.9749 -0.000490099 39.6643 0.287844 40.2743C0.576177 40.8843 1.0617 41.3792 1.66601 41.6793L44.666 63.6794C45.0912 63.8986 45.5626 64.013 46.041 64.013C46.5194 64.013 46.9908 63.8986 47.416 63.6794L90.416 41.6793C90.7683 41.4996 91.0816 41.2521 91.338 40.951C91.5944 40.6499 91.7889 40.3011 91.9102 39.9247C92.0315 39.5483 92.0774 39.1516 92.0451 38.7574C92.0128 38.3633 91.9031 37.9794 91.7221 37.6277C91.5411 37.2761 91.2925 36.9636 90.9905 36.7082C90.6886 36.4529 90.3391 36.2596 89.9623 36.1396C89.5855 36.0195 89.1887 35.975 88.7946 36.0087C88.4006 36.0423 88.017 36.1534 87.666 36.3356L46.041 57.6168L4.41601 36.3356C3.973 36.1029 3.47884 35.9848 2.97851 35.9919V35.9919ZM2.97851 49.9918C2.3038 49.9967 1.65044 50.2289 1.12395 50.6509C0.597451 51.0728 0.228555 51.66 0.0768369 52.3174C-0.0748815 52.9749 -0.00056535 53.6643 0.287784 54.2743C0.576133 54.8843 1.06168 55.3792 1.66601 55.6793L44.666 77.6794C45.0912 77.8986 45.5626 78.013 46.041 78.013C46.5194 78.013 46.9908 77.8986 47.416 77.6794L90.416 55.6793C90.7669 55.4988 91.0788 55.2509 91.3339 54.9498C91.589 54.6487 91.7822 54.3003 91.9027 53.9245C92.0231 53.5487 92.0683 53.1528 92.0358 52.7596C92.0033 52.3663 91.8936 51.9833 91.713 51.6324C91.5324 51.2815 91.2845 50.9696 90.9834 50.7145C90.6823 50.4595 90.3339 50.2662 89.9581 50.1458C89.5823 50.0254 89.1865 49.9801 88.7932 50.0127C88.3999 50.0452 88.0169 50.155 87.666 50.3356L46.041 71.6169L4.41601 50.3356C3.973 50.1029 3.47884 49.9847 2.97851 49.9918V49.9918Z"></path>
            </g>
            </svg>