<svg width="96" height="80" viewBox="0 0 96 80" fill="none" xmlns="http://www.w3.org/2000/svg">
              <g fill="#4842B7" fill-rule="evenodd">
              <path d="M40.164 80H87.828C89.9928 79.9987 92.0688 79.139 93.6008 77.6094C95.1328 76.0797 95.9952 74.0049 96 71.84V32.172C95.9984 30.0052 95.1368 27.9276 93.6048 26.3954C92.0728 24.8632 89.9952 24.0017 87.828 24H64V8.172C63.9987 6.00712 63.139 3.93109 61.6093 2.39916C60.0796 0.867232 58.0049 0.00444758 55.84 0H8.164C5.99842 0.00338963 3.92264 0.865712 2.3921 2.39775C0.861552 3.92979 0.0012686 6.00642 0 8.172V47.84C0.00402077 50.0036 0.865576 52.0774 2.39586 53.607C3.92615 55.1365 6.00038 55.997 8.164 56H32V71.84C32.004 74.0036 32.8656 76.0774 34.3958 77.607C35.9262 79.1365 38.0004 79.997 40.164 80ZM8 47.84L8.164 8L56 8.172V32H87.828L88 32.172L87.828 72L40 71.84V48L8 47.84Z" ></path>
            </g>
            </svg>