<svg width="95" height="95" viewBox="0 0 95 95" fill="none" xmlns="http://www.w3.org/2000/svg">
<g fill="#4842B7" fill-rule="evenodd">
              <path d="M20.75 51.55C21.45 51.55 22.05 50.95 22.05 50.25V44.75C22.05 44.05 21.45 43.45 20.75 43.45H11.55V39.85C11.55 38.75 10.25 38.05 9.35 38.85L0.45 46.45C-0.15 46.95 -0.15 47.95 0.45 48.45L9.35 56.15C10.25 56.85 11.55 56.25 11.55 55.15V51.55H20.75Z"></path>
              <path d="M27.55 63.45C27.05 62.95 26.15 62.95 25.65 63.45L19.15 69.95L16.65 67.45C15.85 66.65 14.45 67.15 14.35 68.25L13.45 79.95C13.45 80.85 14.05 81.45 14.95 81.45L26.65 80.55C27.75 80.45 28.35 79.05 27.45 78.25L24.95 75.75L31.45 69.25C31.95 68.75 31.95 67.85 31.45 67.35L27.55 63.45Z"></path>
              <path d="M55.15 83.35H51.55V74.15C51.55 73.45 50.95 72.85 50.25 72.85H44.75C44.05 72.85 43.45 73.45 43.45 74.15V83.35H39.85C38.75 83.35 38.05 84.65 38.85 85.55L46.45 94.45C46.95 95.05 47.95 95.05 48.45 94.45L56.15 85.55C56.85 84.65 56.25 83.35 55.15 83.35Z"></path>
              <path d="M78.25 67.45L75.75 69.95L69.25 63.45C68.75 62.95 67.85 62.95 67.35 63.45L63.45 67.35C62.95 67.85 62.95 68.75 63.45 69.25L69.95 75.75L67.45 78.25C66.65 79.05 67.15 80.45 68.25 80.55L79.95 81.45C80.75 81.55 81.45 80.85 81.35 80.05L80.45 68.35C80.45 67.15 79.05 66.55 78.25 67.45Z"></path>
              <path d="M94.45 46.45L85.55 38.75C84.65 38.05 83.35 38.65 83.35 39.75V43.35H74.15C73.45 43.35 72.85 43.95 72.85 44.65V50.15C72.85 50.85 73.45 51.45 74.15 51.45H83.35V55.05C83.35 56.15 84.65 56.85 85.55 56.05L94.45 48.45C95.15 47.95 95.15 46.95 94.45 46.45Z"></path>
              <path d="M67.35 31.45C67.85 31.95 68.75 31.95 69.25 31.45L75.75 24.95L78.25 27.45C79.05 28.25 80.45 27.75 80.55 26.65L81.45 14.95C81.55 14.15 80.85 13.45 80.05 13.55L68.35 14.45C67.25 14.55 66.65 15.95 67.55 16.75L70.05 19.25L63.45 25.65C62.95 26.15 62.95 27.05 63.45 27.55L67.35 31.45Z"></path>
              <path d="M39.75 11.55H43.35V20.75C43.35 21.45 43.95 22.05 44.65 22.05H50.15C50.85 22.05 51.45 21.45 51.45 20.75V11.55H55.05C56.15 11.55 56.85 10.25 56.05 9.35L48.45 0.45C47.95 -0.15 46.95 -0.15 46.45 0.45L38.75 9.35C38.05 10.25 38.65 11.55 39.75 11.55Z"></path>
              <path d="M16.65 27.45L19.15 24.95L25.65 31.45C26.15 31.95 27.05 31.95 27.55 31.45L31.45 27.55C31.95 27.05 31.95 26.15 31.45 25.65L24.95 19.15L27.45 16.65C28.25 15.85 27.75 14.45 26.65 14.35L14.95 13.45C14.05 13.45 13.45 14.05 13.45 14.95L14.35 26.65C14.45 27.75 15.85 28.35 16.65 27.45Z"></path>
              <path d="M47.45 27.95C36.75 27.95 27.95 36.65 27.95 47.45C27.95 58.25 36.75 66.95 47.45 66.95C58.15 66.95 66.95 58.25 66.95 47.45C66.95 36.65 58.15 27.95 47.45 27.95ZM47.45 61.25C39.85 61.25 33.65 55.05 33.65 47.45C33.65 39.85 39.85 33.65 47.45 33.65C55.05 33.65 61.15 39.85 61.15 47.45C61.15 55.05 55.05 61.25 47.45 61.25Z"></path>
              <path d="M51.15 41.75L45.85 47.05L43.85 45.05C42.75 43.95 40.95 43.95 39.75 45.05C38.55 46.15 38.65 47.95 39.75 49.15L43.85 53.25C44.45 53.85 45.15 54.05 45.85 54.05C46.55 54.05 47.35 53.75 47.85 53.25L55.25 45.85C56.35 44.75 56.35 42.95 55.25 41.75C54.05 40.65 52.25 40.65 51.15 41.75Z"></path>
           </g>
            </svg>